<?xml version="1.0" encoding="UTF-8"?>
<svg width="1200px" height="500px" viewBox="0 0 1200 500" version="1.1" xmlns="http://www.w3.org/2000/svg" xmlns:xlink="http://www.w3.org/1999/xlink" style="background: #FFFFFF;">
    <!-- Generator: Sketch 40.1 (33804) - http://www.bohemiancoding.com/sketch -->
    <title>screenshot copy</title>
    <desc>Created with Sketch.</desc>
    <defs></defs>
    <g id="Logo" stroke="none" stroke-width="1" fill="none" fill-rule="evenodd">
        <g id="screenshot-copy" fill="#D6001C">
            <g id="CB-Logo" transform="translate(204.000000, 187.000000)">
                <path d="M271.333957,98.9612963 L291.877277,98.9612963 L291.877277,32.9484444 L271.318979,32.9484444 L271.318979,98.9612963 L271.333957,98.9612963 Z M60.8679149,98.9612963 L81.4074894,98.9612963 L81.4074894,3.73512963 L60.8697872,17.1007963 L60.8697872,98.9612963 L60.8679149,98.9612963 Z M250.292596,47.2455556 C255.70366,47.2455556 259.336,48.1900926 261.770043,49.2749074 L265.009191,34.022037 C260.684085,32.4004259 254.730043,31.4502778 249.318979,31.4502778 C224.716426,31.4502778 211.478979,47.2474259 211.478979,66.5627407 C211.478979,87.3556481 225.12834,100.44637 246.491745,100.44637 C254.318128,100.44637 261.20834,99.0997037 264.859404,97.3415556 L262.425362,82.2177407 C259.317277,83.5756296 255.535149,84.3873704 250.667064,84.3873704 C240.668766,84.3873704 232.542809,77.9009259 232.542809,65.7472593 C232.411745,54.9458704 239.433021,47.2492963 250.24017,47.2492963 L250.292596,47.2455556 Z M281.729191,2.42212963 C274.689191,2.42212963 270.101957,7.14855556 270.101957,13.3563148 C270.101957,19.4537222 274.558128,24.2979815 281.44834,24.2979815 L281.579404,24.2979815 C288.731745,24.2979815 293.187915,19.4537222 293.187915,13.3563148 C293.056851,7.16538889 288.731745,2.43335185 281.691745,2.43335185 L281.729191,2.42212963 Z M357.053447,59.9397593 C357.053447,44.4119444 350.163234,31.4540185 328.125787,31.4540185 C316.086638,31.4540185 307.024511,34.8281667 302.437277,37.3943148 L306.219404,50.4925185 C310.544511,47.9226296 317.715574,45.6295556 324.474723,45.6295556 C334.604085,45.6295556 336.495149,50.6234444 336.495149,54.1434815 L336.495149,54.9477407 C313.109617,54.9477407 297.700255,63.0464444 297.700255,80.1921296 C297.700255,90.7260556 305.676426,100.448241 319.044936,100.448241 C326.890043,100.448241 333.649191,97.6127593 337.974298,92.3532778 L338.367489,92.3532778 L339.584511,98.9631667 L358.101957,98.9631667 C357.278128,95.3159444 357.016,89.2559444 357.016,83.0463148 L357.016,59.9453704 L357.053447,59.9397593 Z M337.169191,74.9307778 C337.169191,76.1465185 337.038128,77.3622593 336.757277,78.4395926 C335.390468,82.632963 331.065362,86.0071111 326.084936,86.0071111 C321.478979,86.0071111 317.958979,83.4390926 317.958979,78.1702593 C317.958979,70.3390185 326.347064,67.7747407 337.150468,67.7747407 L337.150468,74.9307778 L337.169191,74.9307778 Z M88.2808511,98.965037 L108.820426,98.965037 L108.820426,32.9447037 L88.2808511,32.9447037 L88.2808511,98.9612963 L88.2808511,98.965037 Z M40.1055319,47.2455556 C45.5109787,47.2455556 49.1639149,48.1863519 51.5979574,49.2711667 L54.8427234,34.0182963 C50.517617,32.3966852 44.5822979,31.446537 39.171234,31.446537 C14.5668085,31.4502778 1.3106383,47.2455556 1.3106383,66.5627407 C1.3106383,87.3556481 14.96,100.44637 36.3234043,100.44637 C44.164766,100.44637 51.0587234,99.0997037 54.7041702,97.3415556 L52.2738723,82.2177407 C49.1657872,83.5756296 45.3649362,84.3873704 40.5155745,84.3873704 C30.4985532,84.3873704 22.3913191,77.9009259 22.3913191,65.7472593 C22.2415319,54.9458704 29.2815319,47.2492963 40.0849362,47.2492963 L40.1055319,47.2455556 Z M185.286809,98.9612963 L205.837617,98.9612963 L205.837617,32.9447037 L185.286809,32.9447037 L185.286809,98.9612963 L185.286809,98.9612963 Z M154.773277,31.4484074 C143.694638,31.4484074 137.07217,37.7964444 134.370383,42.1188704 L133.958468,42.1188704 L133.014809,32.9353519 L115.177021,32.9353519 C115.439149,38.8644259 115.710638,45.7473889 115.710638,53.9770185 L115.710638,98.9425926 L136.263319,98.9425926 L136.263319,60.8805556 C136.263319,58.9914815 136.394383,57.1080185 136.933617,55.752 C138.416511,51.9738519 141.807319,48.0591667 147.478638,48.0591667 C154.91183,48.0591667 157.888851,53.8666667 157.888851,62.3675 L157.888851,98.9612963 L178.434043,98.9612963 L178.434043,59.9453704 C178.434043,40.5047407 168.297191,31.4558889 154.773277,31.4558889 L154.773277,31.4484074 Z M195.702638,2.42025926 C188.668255,2.42025926 184.07166,7.14668519 184.07166,13.3544444 C184.07166,19.4368889 188.52783,24.2961111 195.436766,24.2961111 L195.586553,24.2961111 C202.757617,24.2961111 207.213787,19.4368889 207.213787,13.3544444 C207.082723,7.14855556 202.757617,2.42212963 195.73634,2.42212963 L195.702638,2.42025926 Z M98.6891915,2.42025926 C91.6491915,2.42025926 87.0619574,7.14668519 87.0619574,13.3544444 C87.0619574,19.4368889 91.5181277,24.2961111 98.4083404,24.2961111 L98.5394043,24.2961111 C105.691745,24.2961111 110.166638,19.4368889 110.166638,13.3544444 C110.016851,7.14855556 105.691745,2.42212963 98.6704681,2.42212963 L98.6891915,2.42025926 Z M402.944511,31.4484074 C391.860255,31.4484074 385.23217,37.7964444 382.536,42.1188704 L382.105362,42.1188704 L381.150468,32.9353519 L363.307064,32.9353519 C363.569191,38.8644259 363.850043,45.7473889 363.850043,53.9770185 L363.850043,98.9425926 L384.389617,98.9425926 L384.389617,60.8805556 C384.389617,58.9914815 384.520681,57.1080185 385.06366,55.752 C386.542809,51.9738519 389.913021,48.0591667 395.604936,48.0591667 C403.038128,48.0591667 406.015149,53.8666667 406.015149,62.3675 L406.015149,98.9612963 L426.554723,98.9612963 L426.554723,59.9453704 C426.554723,40.5047407 416.425362,31.4558889 402.907064,31.4558889 L402.944511,31.4484074 Z M436.32834,14.1848889 C434.867915,22.9606667 432.377702,32.3611481 429.475574,40.8788148 L439.84834,40.8788148 C444.285787,33.3000741 448.59217,23.8434815 451.868766,14.1830185 L436.309617,14.1830185 L436.32834,14.1848889 Z M473.831319,58.7258889 C465.705362,55.8829259 463.140255,54.2706667 463.140255,51.0274444 C463.140255,47.7860926 465.986213,45.7586111 470.985362,45.7586111 C476.527489,45.7586111 482.331745,47.9188889 485.290043,49.4058333 L488.810043,35.364963 C484.747064,33.3393519 477.987915,31.4502778 470.292596,31.4502778 C453.92834,31.4502778 443.387064,40.7647222 443.387064,53.191463 C443.237277,60.8786852 448.517277,68.4349815 462.297702,72.9051667 C469.861957,75.4675741 471.902809,77.0947963 471.902809,80.5923889 C471.902809,83.9590556 469.337702,85.9977593 463.102809,85.9977593 C457.025191,85.9977593 449.18383,83.4166481 445.39983,81.1347963 L441.761872,95.7049815 C446.755404,98.3983148 454.461957,100.418315 463.106553,100.418315 C482.035915,100.418315 491.633532,91.3657222 491.633532,78.946463 C491.502468,69.351463 486.372255,62.8799815 473.803234,58.6903519 L473.831319,58.7258889 Z M635.489191,32.9428333 L656.028766,32.9428333 L656.028766,98.9612963 L635.489191,98.9612963 L635.489191,32.9484444 L635.489191,32.9428333 Z M624.161532,31.446537 C626.033872,31.446537 626.988766,31.5849444 628.467915,31.8467963 L628.467915,51.1602407 C626.707915,50.889037 625.078979,50.6140926 622.794723,50.6140926 C615.230468,50.6140926 610.081532,54.5418704 608.714723,61.0133519 C608.452596,62.3787222 608.321532,63.8563148 608.321532,65.614463 L608.321532,98.9631667 L587.781957,98.9631667 L587.913021,54.6915 C587.913021,44.9655741 587.781957,38.6250185 587.370043,32.9577963 L604.932596,32.9577963 L605.737702,45.2461296 L606.269447,45.2461296 C609.63966,35.5202037 617.619574,31.4615 624.112851,31.4615 L624.161532,31.446537 Z M785.725787,8.5532037 L785.725787,8.49709259 C786.39983,8.3007037 786.942809,7.79196296 786.942809,6.97461111 C786.942809,6.37609259 786.736851,5.94590741 786.362383,5.66535185 C785.987915,5.3847963 785.370043,5.19775926 784.415149,5.19775926 C783.666213,5.19775926 783.160681,5.25387037 782.636426,5.34738889 L782.636426,11.5962963 L783.628766,11.5962963 L783.628766,8.92166667 L784.321532,8.92166667 C785.126638,8.92166667 785.51983,9.22092593 785.669617,10.0214444 C785.785702,10.8369259 785.950468,11.4167407 786.100255,11.615 L787.133787,11.615 C787.04017,11.4167407 786.890383,11.0426667 786.740596,10.0682037 C786.609532,9.14798148 786.244426,8.64298148 785.692085,8.5532037 L785.725787,8.5532037 Z M784.358979,8.15294444 L783.628766,8.15294444 L783.628766,6.02259259 C783.797277,5.99640741 784.021957,5.96648148 784.340255,5.96648148 C785.46366,5.96648148 785.875574,6.51637037 785.875574,7.07 C785.875574,7.83685185 785.164085,8.14546296 784.340255,8.14546296 L784.358979,8.15294444 Z M554.622809,31.3081296 C545.410894,31.3081296 538.501957,34.9553519 534.570043,40.6412778 L534.289191,40.6412778 L534.289191,3.10481481 L513.71217,16.4966667 L513.71217,79.2101852 C513.71217,86.6411667 513.435064,94.6257778 513.157957,98.9612963 L530.632511,98.9612963 L531.437617,89.7646852 L531.718468,89.7646852 C536.436766,97.601537 543.907404,100.4445 551.621447,100.4445 C566.787404,100.4445 581.953362,88.5452037 581.953362,64.7297778 C582.084426,44.4362593 570.438468,31.3137407 554.579745,31.3137407 L554.622809,31.3081296 Z M546.777702,84.2022037 C540.804936,84.2022037 536.067915,80.0125741 534.701106,74.4575741 C534.420255,73.3727593 534.289191,72.1570185 534.289191,70.7916481 L534.289191,61.0470185 C534.289191,59.7003519 534.420255,58.4846111 534.686128,57.2501667 C536.045447,51.2836852 541.201872,47.0940556 546.744,47.0940556 C556.36783,47.0940556 560.973787,55.211463 560.973787,65.4985 C560.973787,77.3940556 555.551489,84.1647963 546.749617,84.1647963 L546.777702,84.2022037 Z M784.75217,2.72887037 L784.714723,2.72887037 C781.644085,2.72887037 779.135149,5.21646296 779.135149,8.33998148 C779.135149,11.5009074 781.625362,13.9697963 784.696,13.9697963 C787.804085,13.9697963 790.238128,11.5009074 790.238128,8.32127778 C790.238128,5.19775926 787.798468,2.71016667 784.72034,2.71016667 L784.75217,2.72887037 Z M784.75217,13.1094259 C782.243234,13.1094259 780.221106,10.9959074 780.221106,8.33998148 C780.221106,5.70275926 782.243234,3.58924074 784.714723,3.58924074 L784.733447,3.58924074 C787.242383,3.58924074 789.227064,5.70275926 789.227064,8.35868519 C789.227064,10.9959074 787.242383,13.1281296 784.733447,13.1094259 L784.75217,13.1094259 Z M762.978723,1.60851852 C767.440511,1.60851852 770.954894,2.2912037 773.793362,2.95518519 L772.988255,18.7598148 C771.224511,18.2211481 769.06383,17.8152778 766.36017,17.8152778 C759.595404,17.8152778 756.758809,23.0841111 756.758809,29.5612037 L756.758809,32.9465741 L770.007489,32.9465741 L770.007489,48.0629074 L756.893617,48.0629074 L756.893617,98.9612963 L736.346553,98.9612963 L736.346553,48.0647778 L727.557787,48.0647778 L727.557787,32.9484444 L736.346553,32.9484444 L736.346553,30.3748148 C736.346553,22.407037 738.786213,13.6293889 744.596085,8.22401852 C749.862979,3.37227778 756.893617,1.60851852 762.978723,1.60851852 L762.978723,1.60851852 Z M695.424681,31.3174815 C672.572766,31.3174815 662.040851,49.8154444 662.040851,66.5627407 C662.040851,87.3556481 674.873872,100.322926 697.315745,100.322926 C706.239319,100.322926 714.485106,98.9631667 721.244255,96.1276852 L718.536851,82.2177407 C712.994723,84.118037 707.315915,85.0607037 700.285277,85.0607037 C690.689532,85.0607037 682.310809,81.0094815 681.636766,72.3608889 L724.213787,72.4992963 C724.475915,70.8776852 724.895319,67.7766111 724.895319,64.2659259 C724.895319,47.9282407 716.778723,31.3174815 695.424681,31.3174815 L695.424681,31.3174815 Z M681.50383,58.3256296 C682.050553,52.9202593 685.559319,44.9524815 694.336851,44.9524815 C703.661106,44.9524815 705.833021,53.4626667 705.833021,58.3256296 L681.492596,58.3256296 L681.50383,58.3256296 Z M657.410553,13.3544444 C657.410553,19.4368889 652.954383,24.2961111 645.792681,24.2961111 L645.650383,24.2961111 C638.76017,24.2961111 634.294638,19.4368889 634.294638,13.3544444 C634.294638,7.14855556 638.900596,2.42212963 645.921872,2.42212963 C652.961872,2.42212963 657.286979,7.14855556 657.418043,13.3563148 L657.410553,13.3544444 Z" id="Shape"></path>
            </g>
        </g>
    </g>
</svg>