<?xml version="1.0" encoding="UTF-8"?>
<svg width="1200px" height="500px" viewBox="0 0 1200 500" version="1.1" xmlns="http://www.w3.org/2000/svg" xmlns:xlink="http://www.w3.org/1999/xlink" style="background: #1A1A1A;">
    <!-- Generator: Sketch 40.1 (33804) - http://www.bohemiancoding.com/sketch -->
    <title>screenshot</title>
    <desc>Created with Sketch.</desc>
    <defs></defs>
    <g id="Logo" stroke="none" stroke-width="1" fill="none" fill-rule="evenodd">
        <g id="screenshot" fill="#FFFFFF">
            <g id="White-Logo-with-text" transform="translate(434.000000, 187.000000)">
                <path d="M233.135556,20.7829949 C228.962085,20.7829951 224.30275,23.9216096 222.731567,27.7860854 L166.131265,167 L110.959106,27.8106962 C109.420631,23.9294042 104.789724,20.7829953 100.624066,20.7829953 L32.504227,20.7829948 C26.2474758,20.7829948 21.1753767,25.865563 21.1753767,32.1086926 L21.1753767,45.3299233 C21.1753767,51.5849335 26.2534547,56.6556213 32.5063056,56.6556216 L90.6170536,56.6556236 L90.6170536,76.2225113 L32.5063056,76.2225117 C26.2484064,76.2225117 21.1753767,81.3003101 21.1753767,87.550776 L21.1753767,104.987186 C21.1753767,111.243613 26.2506419,116.31545 32.5066028,116.31545 L99.678759,116.315448 L99.678759,136.648203 L11.3373743,136.642946 C5.07591538,136.642573 0,131.576157 0,125.314867 L0,11.3274039 C0,5.07145148 5.07234065,0.00305328873 11.3338304,0.00682238416 L108.173449,0.0651148641 L116.746157,0.0619642312 C120.91994,0.0604302865 125.572394,3.19376506 127.137375,7.05964961 L166.131265,103.384095 L205.0489,7.00447285 C206.610967,3.13600931 211.258354,0 215.435501,0 L269.141224,0 L275.886231,0 C275.886231,0 279.871625,0.0831389429 282.019893,0 C293.169357,0.182069164 302.460438,2.70112027 309.893414,7.61641566 C317.262313,12.4702699 322.580656,17.9998942 325.848602,24.2054547 C328.219465,27.4618379 329.853414,31.7319367 330.750497,37.0158792 C331.583503,42.2998218 332,52.7446678 332,68.3507307 C332,83.7110288 331.583503,94.0944346 330.750497,99.5012595 C329.853414,104.908084 328.219465,109.239624 325.848602,112.496007 C322.580656,118.701567 317.262313,124.169751 309.893414,128.900723 C302.460438,133.816018 296.803338,136.399329 282.019893,136.642275 C267.236448,136.88522 256.487061,133.816019 249.118162,128.900724 C242.910682,124.98353 238.108995,120.560928 234.713009,115.632825 C234.007509,114.609036 233.362677,113.56343 232.778511,112.496007 C231.753273,110.468448 230.824165,108.53308 229.991159,106.689844 C229.222231,104.785167 228.581466,102.388996 228.068847,99.5012602 C227.107687,94.0944353 226.627114,83.7110295 226.627114,68.3507314 C226.627114,52.7446686 227.107687,42.2998225 228.068847,37.01588 C229.094085,31.7319374 230.54375,27.0924921 232.778516,24.2054553 C235.427738,20.7829947 236.655509,20.7829947 236.655509,20.7829947 L233.135556,20.7829949 Z M249.550865,41.2238119 C250.532435,36.6907799 252.530601,32.9847756 255.545422,30.1056877 C257.999347,27.3491142 261.224457,25.0520041 265.220849,23.2142884 C269.147129,21.4378299 273.844571,20.4883577 279.313318,20.3658433 C284.852177,20.4883577 289.654786,21.4378299 293.72129,23.2142884 C297.577458,25.0520041 300.662346,27.3491142 302.976046,30.1056877 C305.990868,32.9847756 308.059145,36.6907799 309.180939,41.2238119 C310.232621,46.0018726 310.758454,54.9759161 310.75955,68.1462118 C310.758454,81.3165074 310.232621,90.2292946 309.180939,94.884841 C308.059145,99.5403873 305.990868,103.307648 302.976046,106.186736 C300.662346,108.943309 297.577458,111.179163 293.72129,112.894364 C289.654786,114.915852 284.852177,115.92658 279.313318,115.92658 C273.844571,115.92658 269.147129,114.915852 265.220849,112.894364 C261.224457,111.179163 257.999347,108.943309 255.545422,106.186736 C252.530601,103.307648 250.532435,99.5403873 249.550865,94.884841 C248.429071,90.2292946 247.868182,81.3165074 247.868182,68.1462118 C247.868182,54.9759161 248.429071,46.0018726 249.550865,41.2238119 Z" id="White-Logo"></path>
            </g>
        </g>
    </g>
</svg>